<svg width="27" height="31" viewBox="0 0 27 31" fill="none" xmlns="http://www.w3.org/2000/svg">
<path d="M5.90527 1.1416C6.3932 1.00204 6.74963 1.01427 7.02344 1.09766C7.22919 1.16034 7.417 1.27191 7.59668 1.43555L7.77441 1.61719C8.1199 2.00831 8.40797 2.55601 8.7334 3.21387C8.95657 3.66496 9.26512 4.18324 9.54297 4.68066C9.82949 5.19362 10.099 5.70926 10.2852 6.21484C10.4719 6.722 10.5624 7.18497 10.5234 7.59668C10.486 7.9923 10.327 8.36821 9.95801 8.71973C9.59286 9.06752 9.16567 9.35311 8.69629 9.63379C8.36 9.83488 7.97397 10.0487 7.60254 10.2715L7.23828 10.4971C7.0904 10.5924 6.93968 10.7046 6.7998 10.835L6.74219 10.8887L6.70312 10.957C6.55088 11.2221 6.45832 11.5225 6.45605 11.8584L6.46094 12.0049C6.53483 13.0856 6.96621 14.1315 7.49414 15.0762C8.02272 16.022 8.67333 16.9093 9.21484 17.6602L9.21582 17.6611C9.27939 17.7491 9.34423 17.8389 9.41016 17.9287L9.41895 17.9424L9.43652 17.9629C9.87579 18.4977 10.3289 19.016 10.7852 19.5186C11.4069 20.2037 12.1395 21.0247 12.9541 21.7373C13.7677 22.4489 14.7003 23.0864 15.7402 23.3799C16.128 23.4893 16.4946 23.4648 16.8311 23.3506L16.917 23.3213L16.9883 23.2656C17.0996 23.1773 17.2023 23.082 17.2959 22.9863C17.6893 22.5841 18.0825 22.1163 18.4355 21.7305C18.8051 21.3266 19.1705 20.9655 19.584 20.6777C20.0018 20.387 20.4 20.3078 20.792 20.3516C21.2002 20.3972 21.6326 20.5803 22.0889 20.8672C22.5437 21.1532 22.9918 21.5229 23.4336 21.9092C23.862 22.2837 24.3048 22.6925 24.6992 23.0039C25.2156 23.4116 25.653 23.7728 25.9648 24.1514L25.9668 24.1533C25.999 24.1921 26.0297 24.232 26.0605 24.2734V24.2725C26.3402 24.6498 26.4635 25.0173 26.4033 25.4482L26.4014 25.4668C26.3696 25.6789 26.2908 25.9247 26.1416 26.21C25.6627 27.1264 24.9121 27.8475 24.1133 28.6816C23.9352 28.8677 23.7561 29.0584 23.582 29.2549C23.4344 29.4216 23.2787 29.5813 23.1162 29.7266C22.6513 30.1424 22.1585 30.4178 21.6445 30.4648C21.2713 30.4988 20.8766 30.4151 20.418 30.293C15.549 28.9958 11.2399 25.7387 7.97266 21.877C7.41128 21.2136 6.87745 20.5261 6.37207 19.8184L6.36621 19.8115L6.36035 19.8037L5.83203 19.0977C3.23248 15.5229 1.29777 11.3024 0.834961 6.93066C0.799973 6.5996 0.772627 6.26754 0.754883 5.93555C0.739537 5.64891 0.732887 5.38544 0.755859 5.13574C0.81178 4.80045 0.920569 4.48832 1.09961 4.20117V4.2002C1.29552 3.88571 1.58447 3.59819 1.94922 3.33008L1.9502 3.33105C2.09931 3.22563 2.25476 3.126 2.41406 3.03418L2.84668 2.77637C3.92233 2.11368 4.82691 1.44989 5.90527 1.1416Z" stroke="#D9D9D9" stroke-width="1.04386"/>
</svg>
