<svg width="16" height="21" viewBox="0 0 16 21" fill="none" xmlns="http://www.w3.org/2000/svg">
<path d="M15.1733 0.890252C15.1194 0.829941 15.0533 0.781737 14.9794 0.748814C14.9055 0.71589 14.8254 0.698992 14.7445 0.699233H0.991147C0.90983 0.698661 0.829322 0.715403 0.754975 0.748345C0.680627 0.781287 0.614141 0.829675 0.559937 0.890294C0.505732 0.950913 0.46505 1.02237 0.440593 1.09993C0.416137 1.17748 0.408466 1.25935 0.418091 1.3401L2.63009 19.7734C2.67004 20.098 2.82759 20.3968 3.07294 20.6131C3.31828 20.8294 3.6344 20.9483 3.96149 20.9472H11.7741C12.1012 20.9472 12.4168 20.8274 12.6615 20.6104C12.9061 20.3934 13.0627 20.0943 13.1017 19.7696L15.3175 1.3401C15.3269 1.25918 15.3188 1.17719 15.2939 1.09962C15.2691 1.02205 15.228 0.950676 15.1733 0.890252ZM14.0988 1.84534L13.7779 4.51961H1.9577L1.63679 1.84534H14.0988ZM11.9642 19.633C11.9586 19.6796 11.936 19.7225 11.9008 19.7535C11.8655 19.7845 11.8201 19.8014 11.7732 19.8011H3.96149C3.91456 19.8014 3.86915 19.7845 3.83391 19.7535C3.79868 19.7225 3.7761 19.6796 3.77047 19.633L2.09523 5.66572H7.86782H13.6404L11.9642 19.633Z" fill="#404E54"/>
</svg>
