<svg width="16" height="21" viewBox="0 0 16 21" fill="none" xmlns="http://www.w3.org/2000/svg">
<path d="M15.1743 0.890252C15.1204 0.829941 15.0543 0.781737 14.9803 0.748814C14.9064 0.71589 14.8264 0.698992 14.7455 0.699233H0.992123C0.910806 0.698661 0.830299 0.715403 0.755951 0.748345C0.681603 0.781287 0.615118 0.829675 0.560914 0.890294C0.506709 0.950913 0.466027 1.02237 0.44157 1.09993C0.417113 1.17748 0.409442 1.25935 0.419067 1.3401L2.63106 19.7734C2.67101 20.098 2.82857 20.3968 3.07391 20.6131C3.31926 20.8294 3.63538 20.9483 3.96246 20.9472H11.7751C12.1021 20.9472 12.4178 20.8274 12.6624 20.6104C12.9071 20.3934 13.0637 20.0943 13.1027 19.7696L15.3185 1.3401C15.3278 1.25918 15.3198 1.17719 15.2949 1.09962C15.2701 1.02205 15.2289 0.950676 15.1743 0.890252ZM14.0998 1.84534L13.7789 4.51961H1.95868L1.63777 1.84534H14.0998Z" fill="#E1E7E9"/>
</svg>
