<svg width="165" height="22" viewBox="0 0 165 22" fill="none" xmlns="http://www.w3.org/2000/svg">
<path d="M10.5525 16.0288L16.2057 0.511719H21.0162L13.1568 20.7662H7.83395L0 0.511719H4.9248L10.5525 16.0288Z" fill="white"/>
<path d="M102.549 0.511719H110.252C112.178 0.511719 113.715 0.776071 114.859 1.30478C116.023 1.83348 116.862 2.57199 117.378 3.51611C117.895 4.44344 118.153 5.50085 118.153 6.69253C118.153 7.97653 117.886 9.09268 117.353 10.041C116.819 10.9851 115.998 11.7446 114.893 12.3111L119.157 20.7662H114.431L110.853 13.2762C110.7 13.2762 110.548 13.2846 110.395 13.3055H106.847V20.7662H102.553V0.511719H102.549ZM113.8 6.8352C113.8 5.89108 113.525 5.18195 112.97 4.70779C112.415 4.21685 111.416 3.96928 109.964 3.96928H106.843V9.86896H110.133C111.547 9.86896 112.509 9.613 113.025 9.10108C113.542 8.57237 113.8 7.81708 113.8 6.831V6.8352Z" fill="white"/>
<path d="M30.2345 4.77537L33.5206 13.7424L26.1863 16.1509L30.2345 4.77537ZM26.7283 0.449219L18.6572 20.7666H25.4495L23.5693 16.5202H36.5356L34.7909 20.7666H41.2698L33.2326 0.449219H26.7283Z" fill="white"/>
<path d="M82.375 12.4537V0.511719H86.8975V12.6551C86.8975 14.2622 87.1939 15.4623 87.7868 16.2596C88.3966 17.0358 89.379 17.4219 90.734 17.4219C92.0891 17.4219 93.1096 17.0358 93.6813 16.2596C94.253 15.4665 94.5409 14.2622 94.5409 12.6551V0.511719H99.0634V12.5125C99.0634 15.4833 98.3393 17.6862 96.8869 19.1213C95.4556 20.5605 93.3849 21.2781 90.6748 21.2781C87.9646 21.2781 85.9024 20.5689 84.4923 19.1507C83.0779 17.7114 82.375 15.4833 82.375 12.4537Z" fill="white"/>
<path d="M59.0677 10.6955C59.0677 8.42542 59.47 6.49523 60.2703 4.90911C61.0918 3.30202 62.2479 2.08096 63.7342 1.25014C65.2248 0.419317 66.9694 0.00390625 68.9724 0.00390625C70.9753 0.00390625 72.7115 0.419317 74.1809 1.25014C75.6503 2.06418 76.7767 3.25586 77.5601 4.82519C78.3604 6.39452 78.7627 8.30373 78.7627 10.557C78.7627 12.8103 78.3604 14.7657 77.5601 16.3728C76.7597 17.9631 75.6249 19.18 74.1512 20.0318C72.6819 20.8626 70.9245 21.278 68.8834 21.278C66.8424 21.278 65.1443 20.871 63.6749 20.0569C62.2055 19.2261 61.0707 18.026 60.2661 16.4525C59.4658 14.8832 59.0635 12.9614 59.0635 10.6955H59.0677ZM63.7639 10.6367C63.7639 12.7558 64.1915 14.4174 65.0512 15.6301C65.9108 16.8218 67.1981 17.4176 68.9173 17.4176C70.6366 17.4176 71.8942 16.8218 72.7538 15.6301C73.6304 14.4216 74.0708 12.7558 74.0708 10.6367C74.0708 8.51773 73.6304 6.86448 72.7538 5.6728C71.8942 4.46433 70.6154 3.8559 68.9173 3.8559C67.2193 3.8559 65.9108 4.46013 65.0512 5.6728C64.1915 6.86448 63.7639 8.51773 63.7639 10.6367Z" fill="white"/>
<path d="M43.8916 0.511719H48.3845V16.8806H58.594L57.1204 20.7662H43.8916V0.511719Z" fill="white"/>
<path d="M150.387 13.7252C149.697 12.9321 148.82 12.5293 147.783 12.5293C146.745 12.5293 145.869 12.9321 145.174 13.7252C144.488 14.5098 144.137 15.5001 144.137 16.6666C144.137 17.8331 144.484 18.8108 145.174 19.5955C145.869 20.3843 146.749 20.783 147.783 20.783C148.816 20.783 149.692 20.3843 150.387 19.5913C151.069 18.8108 151.416 17.8247 151.416 16.6624C151.416 15.5001 151.069 14.5056 150.387 13.721M150.234 16.6666C150.234 17.5058 149.993 18.215 149.523 18.7647C149.053 19.3143 148.486 19.5829 147.787 19.5829C147.088 19.5829 146.508 19.3185 146.038 18.7647C145.564 18.2108 145.322 17.5058 145.322 16.6666C145.322 15.8274 145.564 15.1099 146.038 14.556C146.512 14.0021 147.084 13.7336 147.787 13.7336C148.49 13.7336 149.049 14.0063 149.519 14.5602C149.993 15.1225 150.234 15.8316 150.234 16.6624V16.6666Z" fill="white"/>
<path d="M164.712 19.2013C164.119 19.4404 163.594 19.5621 163.162 19.5621C162.472 19.5621 162.277 19.4069 162.222 19.3188C162.142 19.1803 162.044 18.8362 162.044 17.9718V13.5953H164.547V12.5085H162.044V9.95312H161.439L160.672 10.8007V12.5085H159.169L157.92 13.5953H160.672V18.9369C160.672 19.5202 160.901 19.9817 161.35 20.309C161.782 20.6237 162.315 20.7874 162.951 20.7874C163.586 20.7874 164.225 20.6489 164.873 20.3762L165 20.3216V19.088L164.712 19.2055V19.2013Z" fill="white"/>
<path d="M154.075 12.5469L150.818 20.7334H153.558L152.796 19.0214H158.03L157.327 20.7334H159.94L156.692 12.5469H154.075ZM153.855 18.8787L155.489 14.2924L156.815 17.9053L153.855 18.8787Z" fill="white"/>
<path d="M140.054 12.4962C139.216 12.5172 138.517 12.7774 137.933 13.2809V10.8136L137.353 9.94922H136.772V20.1708L136.895 20.2254C137.721 20.5905 138.559 20.7709 139.457 20.7709C140.791 20.7709 141.782 20.3932 142.493 19.6128C143.23 18.8029 143.603 17.6952 143.603 16.3189C143.603 15.2363 143.256 14.3215 142.544 13.5285C141.951 12.8697 140.791 12.4836 140.058 12.5004M142.502 16.3692C142.481 17.3385 142.155 18.2784 141.68 18.7232C141.189 19.2645 140.359 19.575 139.415 19.575C138.945 19.575 138.445 19.5456 137.924 19.3568L137.937 14.695C138.729 13.7131 139.461 13.5872 140.122 13.5956C140.833 13.604 141.342 13.8474 141.824 14.4012C141.901 14.4894 142.557 15.274 142.498 16.3734L142.502 16.3692Z" fill="white"/>
<path d="M125.872 14.6862C125.254 14.703 124.737 14.8918 124.306 15.2652V13.4483L123.878 12.8105H123.45V20.3467L123.543 20.3887C124.153 20.6572 124.771 20.7915 125.436 20.7915C126.419 20.7915 127.151 20.5103 127.676 19.9355C128.218 19.3396 128.494 18.5214 128.494 17.506C128.494 16.7087 128.239 16.0331 127.71 15.4499C127.274 14.9631 126.414 14.6778 125.877 14.6904M127.676 17.5437C127.664 18.257 127.422 18.9494 127.071 19.2767C126.707 19.6753 126.097 19.9061 125.398 19.9061C125.051 19.9061 124.682 19.8851 124.297 19.7425L124.306 16.3059C124.89 15.5841 125.432 15.4876 125.919 15.496C126.444 15.5044 126.821 15.6807 127.177 16.0877C127.232 16.1506 127.714 16.7339 127.676 17.5395V17.5437Z" fill="white"/>
<path d="M128.757 21.1481C128.939 21.2152 129.133 21.2488 129.328 21.2488C129.548 21.2488 129.714 21.1858 129.828 21.0558C129.951 20.9341 130.078 20.6991 130.205 20.3466L130.421 19.7885L128.181 14.6777H129.214L130.882 18.7941L132.407 14.6777H133.389L131.077 20.4138C130.946 20.7453 130.815 21.0306 130.679 21.2656C130.544 21.5005 130.378 21.681 130.188 21.8027C129.997 21.9327 129.752 21.9957 129.451 21.9957C129.286 21.9957 129.142 21.9873 129.011 21.9663C128.879 21.9453 128.74 21.9076 128.583 21.853L128.757 21.1439V21.1481Z" fill="white"/>
</svg>
