<svg width="33" height="32" viewBox="0 0 33 32" fill="none" xmlns="http://www.w3.org/2000/svg">
<path d="M9.89746 0.619141C9.98883 0.571931 10.101 0.583538 10.1816 0.650391C10.2598 0.717796 10.292 0.826865 10.2637 0.925781C9.82704 2.3736 9.60646 3.8689 9.60645 5.37012C9.60645 13.8588 16.5003 20.7646 24.9756 20.7646C27.438 20.7646 29.8039 20.1866 32.0039 19.0488C32.0965 19.0011 32.2086 19.013 32.2881 19.0791C32.3665 19.1443 32.3998 19.2559 32.3701 19.3545V19.3555C30.3665 26.0215 24.1094 30.6787 17.1611 30.6787C8.40268 30.6785 1.27344 23.5384 1.27344 14.7627C1.27361 8.78567 4.57651 3.36812 9.89746 0.619141Z" stroke="white" stroke-width="1.04386"/>
</svg>
