<svg width="17" height="18" viewBox="0 0 17 18" fill="none" xmlns="http://www.w3.org/2000/svg">
<path d="M12.75 6.16602C13.9236 6.16602 14.875 5.21462 14.875 4.04102C14.875 2.86741 13.9236 1.91602 12.75 1.91602C11.5764 1.91602 10.625 2.86741 10.625 4.04102C10.625 5.21462 11.5764 6.16602 12.75 6.16602Z" stroke="#151C2B" stroke-width="1.5" stroke-linecap="round" stroke-linejoin="round"/>
<path d="M4.25 11.125C5.4236 11.125 6.375 10.1736 6.375 9C6.375 7.82639 5.4236 6.875 4.25 6.875C3.07639 6.875 2.125 7.82639 2.125 9C2.125 10.1736 3.07639 11.125 4.25 11.125Z" stroke="#151C2B" stroke-width="1.5" stroke-linecap="round" stroke-linejoin="round"/>
<path d="M12.75 16.084C13.9236 16.084 14.875 15.1326 14.875 13.959C14.875 12.7854 13.9236 11.834 12.75 11.834C11.5764 11.834 10.625 12.7854 10.625 13.959C10.625 15.1326 11.5764 16.084 12.75 16.084Z" stroke="#151C2B" stroke-width="1.5" stroke-linecap="round" stroke-linejoin="round"/>
<path d="M6.08447 10.0703L10.9224 12.8895" stroke="#151C2B" stroke-width="1.5" stroke-linecap="round" stroke-linejoin="round"/>
<path d="M10.9153 5.11133L6.08447 7.93049" stroke="#151C2B" stroke-width="1.5" stroke-linecap="round" stroke-linejoin="round"/>
</svg>
