<svg width="25" height="33" viewBox="0 0 25 33" fill="none" xmlns="http://www.w3.org/2000/svg">
<path d="M13.8689 12.8814C14.098 12.2008 15.0688 12.2008 15.2979 12.8814L16.6415 16.8765C16.9373 17.7547 17.4355 18.5526 18.0969 19.2071C18.7582 19.8615 19.5644 20.3544 20.4515 20.6467L24.4844 21.9771C25.1719 22.2039 25.1719 23.1651 24.4844 23.3919L20.4494 24.7223C19.5625 25.0151 18.7565 25.5084 18.0956 26.1632C17.4346 26.818 16.9368 27.6162 16.6415 28.4946L15.2979 32.4876C15.2485 32.6367 15.1528 32.7664 15.0245 32.8584C14.8962 32.9505 14.7418 33 14.5834 33C14.425 33 14.2706 32.9505 14.1423 32.8584C14.014 32.7664 13.9183 32.6367 13.8689 32.4876L12.5253 28.4925C12.2298 27.6145 11.7318 26.8167 11.0709 26.1623C10.4099 25.5079 9.60414 25.0149 8.71737 24.7223L4.68239 23.3919C4.53186 23.343 4.40078 23.2483 4.30785 23.1213C4.21492 22.9942 4.16488 22.8414 4.16488 22.6845C4.16488 22.5276 4.21492 22.3748 4.30785 22.2478C4.40078 22.1207 4.53186 22.026 4.68239 21.9771L8.71737 20.6467C9.60414 20.3541 10.4099 19.8611 11.0709 19.2067C11.7318 18.5523 12.2298 17.7545 12.5253 16.8765L13.8689 12.8814ZM5.82185 2.36467C5.85172 2.27535 5.90926 2.19763 5.9863 2.14254C6.06333 2.08745 6.15594 2.0578 6.25097 2.0578C6.346 2.0578 6.43861 2.08745 6.51564 2.14254C6.59268 2.19763 6.65022 2.27535 6.68009 2.36467L7.48625 4.76131C7.84663 5.82969 8.69237 6.66706 9.77143 7.02388L12.192 7.82207C12.2822 7.85164 12.3607 7.90862 12.4164 7.98489C12.472 8.06116 12.5019 8.15286 12.5019 8.24695C12.5019 8.34103 12.472 8.43273 12.4164 8.509C12.3607 8.58527 12.2822 8.64225 12.192 8.67182L9.77143 9.47001C9.23893 9.64499 8.75505 9.94066 8.35833 10.3335C7.9616 10.7263 7.66298 11.2054 7.48625 11.7326L6.68009 14.1292C6.65022 14.2185 6.59268 14.2963 6.51564 14.3514C6.43861 14.4064 6.346 14.4361 6.25097 14.4361C6.15594 14.4361 6.06333 14.4064 5.9863 14.3514C5.90926 14.2963 5.85172 14.2185 5.82185 14.1292L5.01569 11.7326C4.83896 11.2054 4.54034 10.7263 4.14361 10.3335C3.74689 9.94066 3.26301 9.64499 2.73051 9.47001L0.30994 8.67182C0.21973 8.64225 0.141227 8.58527 0.0855874 8.509C0.0299475 8.43273 0 8.34103 0 8.24695C0 8.15286 0.0299475 8.06116 0.0855874 7.98489C0.141227 7.90862 0.21973 7.85164 0.30994 7.82207L2.73051 7.02388C3.26301 6.8489 3.74689 6.55324 4.14361 6.16043C4.54034 5.76763 4.83896 5.28854 5.01569 4.76131L5.82185 2.36467ZM20.5473 0.2011C20.5679 0.142373 20.6065 0.0914487 20.6576 0.0554077C20.7087 0.0193668 20.77 0 20.8327 0C20.8955 0 20.9567 0.0193668 21.0079 0.0554077C21.059 0.0914487 21.0976 0.142373 21.1181 0.2011L21.6556 1.79748C21.8951 2.51111 22.4596 3.07005 23.1804 3.30724L24.7927 3.83937C24.852 3.85973 24.9035 3.89788 24.9399 3.94852C24.9763 3.99916 24.9958 4.05977 24.9958 4.12193C24.9958 4.18409 24.9763 4.2447 24.9399 4.29534C24.9035 4.34598 24.852 4.38413 24.7927 4.40449L23.1804 4.93662C22.8255 5.05418 22.5031 5.25175 22.2385 5.51374C21.9738 5.77574 21.7743 6.095 21.6556 6.44638L21.1181 8.04276C21.0976 8.10149 21.059 8.15241 21.0079 8.18845C20.9567 8.22449 20.8955 8.24386 20.8327 8.24386C20.77 8.24386 20.7087 8.22449 20.6576 8.18845C20.6065 8.15241 20.5679 8.10149 20.5473 8.04276L20.0099 6.44638C19.8912 6.095 19.6916 5.77574 19.427 5.51374C19.1624 5.25175 18.84 5.05418 18.4851 4.93662L16.8748 4.40449C16.8155 4.38413 16.7641 4.34598 16.7277 4.29534C16.6913 4.2447 16.6717 4.18409 16.6717 4.12193C16.6717 4.05977 16.6913 3.99916 16.7277 3.94852C16.7641 3.89788 16.8155 3.85973 16.8748 3.83937L18.4872 3.30724C19.2079 3.07005 19.7724 2.51111 20.012 1.79748L20.5473 0.2011Z" fill="#FFE999"/>
</svg>
