<svg width="33" height="31" viewBox="0 0 33 31" fill="none" xmlns="http://www.w3.org/2000/svg">
<path d="M7.68239 25.2198L11.6975 23.8712C12.4202 23.6285 13.1981 24.0488 13.3899 24.7878C13.5075 25.2432 13.6394 25.7233 13.7863 26.2321C14.2757 27.9248 13.3405 29.7028 11.6709 30.2636L11.5805 30.2942C9.94731 30.8426 8.16852 30.0378 7.50172 28.4485C7.2957 27.958 7.09098 27.4668 6.88691 26.9757C6.5938 26.2705 6.9597 25.4638 7.68304 25.2211L7.68239 25.2198ZM11.3687 11.4585C11.8892 14.2195 11.6689 15.7906 11.7541 17.9856C11.7768 18.5717 11.4135 19.1039 10.8578 19.2906L5.45256 21.1063C4.78836 21.3294 4.06631 20.9925 3.80895 20.3393C2.99852 18.2809 2.24008 16.272 1.71365 14.7009C-0.0904862 9.32011 1.4134 5.78367 4.39452 4.78245C7.37629 3.78059 10.4581 6.62679 11.3687 11.4585ZM25.5106 21.4693L21.4955 20.1207C20.7728 19.878 19.9949 20.2983 19.8031 21.0373C19.6855 21.4927 19.5536 21.9729 19.4067 22.4816C18.9173 24.1743 19.8525 25.9523 21.5221 26.5131L21.6125 26.5437C23.2457 27.0921 25.0245 26.2874 25.6919 24.698C25.898 24.2075 26.1027 23.7164 26.3068 23.2252C26.5999 22.52 26.234 21.7133 25.5106 21.4706V21.4693ZM21.8243 7.70737C21.3038 10.4683 21.5247 12.0395 21.439 14.2344C21.4162 14.8206 21.7795 15.3528 22.3352 15.5395L27.7404 17.3552C28.4046 17.5783 29.1267 17.2413 29.3841 16.5882C30.1938 14.5304 30.9529 12.5209 31.4794 10.9498C33.2835 5.56833 31.7803 2.03189 28.7985 1.03002C25.8167 0.0281618 22.7349 2.87436 21.8243 7.70607V7.70737Z" stroke="white" stroke-width="1.04386" stroke-linecap="round" stroke-linejoin="round"/>
</svg>
