<svg width="25" height="21" viewBox="0 0 25 21" fill="none" xmlns="http://www.w3.org/2000/svg">
<path d="M16.5004 14.4995L12.5004 10.4995M12.5004 10.4995L8.50045 14.4995M12.5004 10.4995V19.4995M20.8904 16.8895C21.8658 16.3578 22.6363 15.5164 23.0803 14.4981C23.5244 13.4799 23.6167 12.3427 23.3427 11.2662C23.0686 10.1896 22.4439 9.23501 21.5671 8.55294C20.6903 7.87088 19.6113 7.50023 18.5004 7.4995H17.2404C16.9378 6.32874 16.3736 5.24183 15.5904 4.32049C14.8072 3.39915 13.8253 2.66735 12.7185 2.1801C11.6118 1.69286 10.409 1.46285 9.20057 1.50738C7.99213 1.5519 6.80952 1.8698 5.74163 2.43716C4.67374 3.00453 3.74836 3.8066 3.03507 4.78308C2.32178 5.75956 1.83914 6.88503 1.62343 8.07489C1.40772 9.26475 1.46455 10.488 1.78966 11.6528C2.11477 12.8175 2.69969 13.8934 3.50045 14.7995" stroke="white" stroke-width="1.66667" stroke-linecap="round" stroke-linejoin="round"/>
</svg>
