<svg width="176" height="32" viewBox="0 0 176 32" fill="none" xmlns="http://www.w3.org/2000/svg">
<path d="M15.6867 24.0269L24.0275 0.914062H31.125L19.5291 31.0833H11.6756L0.117188 0.914062H7.38337L15.6867 24.0269Z" fill="white"/>
<path d="M151.421 0.914062H162.786C165.628 0.914062 167.896 1.30782 169.583 2.09533C171.301 2.88284 172.538 3.98286 173.301 5.38913C174.063 6.7704 174.444 8.34543 174.444 10.1205C174.444 12.033 174.05 13.6955 173.263 15.108C172.476 16.5143 171.264 17.6456 169.633 18.4893L175.925 31.0833H168.952L163.673 19.9269C163.448 19.9269 163.223 19.9394 162.998 19.9706H157.762V31.0833H151.427V0.914062H151.421ZM168.021 10.333C168.021 8.92668 167.615 7.87042 166.797 7.16416C165.978 6.4329 164.504 6.06414 162.361 6.06414H157.756V14.8518H162.611C164.697 14.8518 166.116 14.4705 166.878 13.708C167.64 12.9205 168.021 11.7955 168.021 10.3267V10.333Z" fill="white"/>
<path d="M44.728 7.26221L49.5762 20.6187L38.7551 24.2062L44.728 7.26221ZM39.5548 0.818359L27.6465 31.0813H37.6679L34.8939 24.7562H54.0247L51.4506 31.0813H61.0097L49.1514 0.818359H39.5548Z" fill="white"/>
<path d="M121.656 18.7018V0.914062H128.329V19.0018C128.329 21.3956 128.766 23.1831 129.641 24.3707C130.541 25.5269 131.99 26.1019 133.989 26.1019C135.989 26.1019 137.494 25.5269 138.338 24.3707C139.181 23.1894 139.606 21.3956 139.606 19.0018V0.914062H146.279V18.7893C146.279 23.2144 145.21 26.4957 143.067 28.6332C140.956 30.777 137.901 31.8458 133.902 31.8458C129.903 31.8458 126.861 30.7895 124.78 28.677C122.693 26.5332 121.656 23.2144 121.656 18.7018Z" fill="white"/>
<path d="M87.267 16.0795C87.267 12.6982 87.8605 9.82319 89.0414 7.46066C90.2534 5.06687 91.9591 3.24809 94.1521 2.01058C96.3513 0.773056 98.9254 0.154297 101.881 0.154297C104.836 0.154297 107.397 0.773056 109.565 2.01058C111.733 3.22309 113.395 4.99812 114.551 7.33566C115.732 9.67319 116.325 12.517 116.325 15.8733C116.325 19.2296 115.732 22.1421 114.551 24.5359C113.37 26.9047 111.696 28.7172 109.522 29.986C107.354 31.2235 104.761 31.8423 101.749 31.8423C98.7379 31.8423 96.2326 31.236 94.0646 30.0235C91.8966 28.786 90.2222 26.9985 89.0351 24.6547C87.8543 22.3171 87.2607 19.4546 87.2607 16.0795H87.267ZM94.1958 15.992C94.1958 19.1483 94.8268 21.6234 96.0951 23.4297C97.3634 25.2047 99.2628 26.0922 101.799 26.0922C104.336 26.0922 106.192 25.2047 107.46 23.4297C108.753 21.6296 109.403 19.1483 109.403 15.992C109.403 12.8357 108.753 10.3732 107.46 8.59818C106.192 6.79815 104.305 5.89188 101.799 5.89188C99.294 5.89188 97.3634 6.7919 96.0951 8.59818C94.8268 10.3732 94.1958 12.8357 94.1958 15.992Z" fill="white"/>
<path d="M64.877 0.914062H71.5059V25.2957H86.5693L84.3951 31.0833H64.877V0.914062Z" fill="white"/>
</svg>
